<svg width="133" height="62" viewBox="0 0 133 62" fill="none" xmlns="http://www.w3.org/2000/svg">
<path d="M78.583 32.5212C78.583 29.9131 79.1654 27.5835 80.3302 25.5325C81.5203 23.4562 83.1282 21.8482 85.1539 20.7088C87.2049 19.544 89.4965 18.9616 92.0287 18.9616C94.9913 18.9616 97.5867 19.7213 99.815 21.2405C102.043 22.7598 103.601 24.8615 104.487 27.5456H98.3717C97.764 26.2795 96.903 25.3299 95.7889 24.6969C94.7001 24.0639 93.434 23.7473 91.9907 23.7473C90.4461 23.7473 89.0661 24.1145 87.8506 24.8488C86.6605 25.5578 85.7236 26.5707 85.04 27.8874C84.3816 29.2041 84.0524 30.7487 84.0524 32.5212C84.0524 34.2684 84.3816 35.813 85.04 37.155C85.7236 38.4717 86.6605 39.4972 87.8506 40.2316C89.0661 40.9406 90.4461 41.2951 91.9907 41.2951C93.434 41.2951 94.7001 40.9785 95.7889 40.3455C96.903 39.6872 97.764 38.7249 98.3717 37.4589H104.487C103.601 40.1683 102.043 42.2826 99.815 43.8019C97.612 45.2958 95.0166 46.0428 92.0287 46.0428C89.4965 46.0428 87.2049 45.4731 85.1539 44.3336C83.1282 43.1689 81.5203 41.5609 80.3302 39.5099C79.1654 37.4589 78.583 35.1293 78.583 32.5212Z" fill="white"/>
<path d="M62.5077 27.0601C62.5077 28.4781 62.1658 29.8075 61.4822 31.0483C60.8238 32.289 59.773 33.2892 58.3296 34.0488C56.9117 34.8085 55.1138 35.1883 52.9362 35.1883H48.4923V45.3675H43.1748V18.856H52.9362C54.9872 18.856 56.7344 19.2105 58.1777 19.9195C59.621 20.6285 60.6972 21.6034 61.4062 22.8441C62.1405 24.0849 62.5077 25.4902 62.5077 27.0601ZM52.7083 30.8963C54.1769 30.8963 55.2658 30.5672 55.9748 29.9088C56.6838 29.2251 57.0383 28.2756 57.0383 27.0601C57.0383 24.4774 55.5949 23.186 52.7083 23.186H48.4923V30.8963H52.7083Z" fill="white"/>
<path d="M17.4508 41.1515H26.1867V45.3675H12.1333V18.856H17.4508V41.1515Z" fill="white"/>
<path d="M98.4151 59.0885C98.0163 59.0885 97.6586 59.022 97.3421 58.8891C97.0256 58.7498 96.7755 58.5599 96.5919 58.3194C96.4084 58.0725 96.3071 57.7908 96.2881 57.4743H97.1807C97.206 57.7338 97.3263 57.9459 97.5415 58.1105C97.7631 58.2751 98.0511 58.3574 98.4056 58.3574C98.7348 58.3574 98.9943 58.2846 99.1842 58.139C99.3741 57.9934 99.4691 57.8098 99.4691 57.5882C99.4691 57.3603 99.3678 57.1926 99.1652 57.085C98.9627 56.971 98.6493 56.8602 98.2252 56.7526C97.839 56.6513 97.5225 56.55 97.2756 56.4488C97.0351 56.3411 96.8262 56.1861 96.6489 55.9835C96.478 55.7746 96.3925 55.5024 96.3925 55.1669C96.3925 54.901 96.4717 54.6573 96.6299 54.4357C96.7882 54.2141 97.0129 54.0401 97.3041 53.9135C97.5953 53.7805 97.9277 53.7141 98.3011 53.7141C98.8772 53.7141 99.3425 53.8596 99.697 54.1508C100.051 54.442 100.241 54.8409 100.267 55.3473H99.4026C99.3836 55.0751 99.2728 54.8567 99.0703 54.6921C98.874 54.5275 98.6082 54.4452 98.2727 54.4452C97.9625 54.4452 97.7156 54.5117 97.532 54.6446C97.3484 54.7775 97.2566 54.9516 97.2566 55.1669C97.2566 55.3378 97.3104 55.4802 97.4181 55.5942C97.532 55.7018 97.6713 55.7904 97.8359 55.86C98.0068 55.9233 98.241 55.9961 98.5385 56.0784C98.912 56.1797 99.2159 56.281 99.4501 56.3823C99.6843 56.4772 99.8837 56.6228 100.048 56.8191C100.219 57.0153 100.308 57.2717 100.314 57.5882C100.314 57.8731 100.235 58.1295 100.077 58.3574C99.9185 58.5853 99.6938 58.7657 99.4026 58.8986C99.1178 59.0252 98.7886 59.0885 98.4151 59.0885Z" fill="white"/>
<path d="M94.8626 56.2019C94.8626 56.3665 94.8531 56.5405 94.8341 56.7241H90.6751C90.7067 57.2369 90.8808 57.6389 91.1973 57.9301C91.5202 58.2149 91.9095 58.3574 92.3653 58.3574C92.7388 58.3574 93.049 58.2719 93.2958 58.101C93.5491 57.9237 93.7263 57.6895 93.8276 57.3983H94.7581C94.6189 57.8984 94.3403 58.3067 93.9225 58.6232C93.5047 58.9334 92.9856 59.0885 92.3653 59.0885C91.8715 59.0885 91.4284 58.9777 91.0359 58.7562C90.6498 58.5346 90.3459 58.2213 90.1243 57.8161C89.9028 57.4046 89.792 56.9299 89.792 56.3918C89.792 55.8537 89.8996 55.3821 90.1148 54.977C90.3301 54.5718 90.6308 54.2616 91.0169 54.0464C91.4094 53.8248 91.8588 53.7141 92.3653 53.7141C92.859 53.7141 93.2958 53.8217 93.6757 54.0369C94.0555 54.2521 94.3467 54.5497 94.5492 54.9295C94.7582 55.303 94.8626 55.7271 94.8626 56.2019ZM93.97 56.0215C93.97 55.6923 93.8972 55.4106 93.7516 55.1764C93.606 54.9358 93.4066 54.7554 93.1534 54.6351C92.9065 54.5085 92.6312 54.4452 92.3273 54.4452C91.8905 54.4452 91.517 54.5845 91.2068 54.863C90.903 55.1415 90.7289 55.5277 90.6846 56.0215H93.97Z" fill="white"/>
<path d="M87.6546 52.9544C87.49 52.9544 87.3508 52.8974 87.2368 52.7835C87.1229 52.6696 87.0659 52.5303 87.0659 52.3657C87.0659 52.2011 87.1229 52.0618 87.2368 51.9479C87.3508 51.834 87.49 51.777 87.6546 51.777C87.8129 51.777 87.9458 51.834 88.0535 51.9479C88.1674 52.0618 88.2244 52.2011 88.2244 52.3657C88.2244 52.5303 88.1674 52.6696 88.0535 52.7835C87.9458 52.8974 87.8129 52.9544 87.6546 52.9544ZM88.0724 53.7995V59.0031H87.2084V53.7995H88.0724Z" fill="white"/>
<path d="M85.1659 51.9764V59.0031H84.3018V51.9764H85.1659Z" fill="white"/>
<path d="M78.1795 54.7586C78.3504 54.461 78.6037 54.2141 78.9392 54.0179C79.281 53.8153 79.6766 53.7141 80.1261 53.7141C80.5882 53.7141 81.006 53.8248 81.3795 54.0464C81.7593 54.268 82.0569 54.5813 82.2721 54.9865C82.4873 55.3853 82.5949 55.8505 82.5949 56.3823C82.5949 56.9077 82.4873 57.3762 82.2721 57.7876C82.0569 58.1991 81.7593 58.5188 81.3795 58.7467C81.006 58.9746 80.5882 59.0885 80.1261 59.0885C79.683 59.0885 79.2905 58.9904 78.9487 58.7942C78.6132 58.5916 78.3568 58.3415 78.1795 58.044V61.4719H77.3154V53.7995H78.1795V54.7586ZM81.7119 56.3823C81.7119 55.9898 81.6327 55.648 81.4745 55.3568C81.3162 55.0656 81.101 54.844 80.8288 54.6921C80.5629 54.5402 80.2685 54.4642 79.9457 54.4642C79.6292 54.4642 79.3348 54.5433 79.0626 54.7016C78.7967 54.8535 78.5815 55.0782 78.4169 55.3758C78.2586 55.667 78.1795 56.0056 78.1795 56.3918C78.1795 56.7843 78.2586 57.1293 78.4169 57.4268C78.5815 57.718 78.7967 57.9427 79.0626 58.101C79.3348 58.2529 79.6292 58.3289 79.9457 58.3289C80.2685 58.3289 80.5629 58.2529 80.8288 58.101C81.101 57.9427 81.3162 57.718 81.4745 57.4268C81.6327 57.1293 81.7119 56.7811 81.7119 56.3823Z" fill="white"/>
<path d="M71.1927 54.7586C71.3636 54.461 71.6168 54.2141 71.9523 54.0179C72.2942 53.8153 72.6898 53.7141 73.1393 53.7141C73.6014 53.7141 74.0192 53.8248 74.3927 54.0464C74.7725 54.268 75.07 54.5813 75.2853 54.9865C75.5005 55.3853 75.6081 55.8505 75.6081 56.3823C75.6081 56.9077 75.5005 57.3762 75.2853 57.7876C75.07 58.1991 74.7725 58.5188 74.3927 58.7467C74.0192 58.9746 73.6014 59.0885 73.1393 59.0885C72.6962 59.0885 72.3037 58.9904 71.9618 58.7942C71.6263 58.5916 71.37 58.3415 71.1927 58.044V61.4719H70.3286V53.7995H71.1927V54.7586ZM74.725 56.3823C74.725 55.9898 74.6459 55.648 74.4877 55.3568C74.3294 55.0656 74.1142 54.844 73.842 54.6921C73.5761 54.5402 73.2817 54.4642 72.9589 54.4642C72.6424 54.4642 72.348 54.5433 72.0758 54.7016C71.8099 54.8535 71.5947 55.0782 71.4301 55.3758C71.2718 55.667 71.1927 56.0056 71.1927 56.3918C71.1927 56.7843 71.2718 57.1293 71.4301 57.4268C71.5947 57.718 71.8099 57.9427 72.0758 58.101C72.348 58.2529 72.6424 58.3289 72.9589 58.3289C73.2817 58.3289 73.5761 58.2529 73.842 58.101C74.1142 57.9427 74.3294 57.718 74.4877 57.4268C74.6459 57.1293 74.725 56.7811 74.725 56.3823Z" fill="white"/>
<path d="M68.3 53.7995V59.003H67.4359V58.2339C67.2713 58.4998 67.0403 58.7087 66.7427 58.8606C66.4515 59.0062 66.1287 59.079 65.7742 59.079C65.369 59.079 65.0051 58.9967 64.6822 58.8321C64.3594 58.6612 64.103 58.408 63.9131 58.0725C63.7295 57.737 63.6377 57.3287 63.6377 56.8476V53.7995H64.4923V56.7336C64.4923 57.2464 64.6221 57.642 64.8816 57.9206C65.1412 58.1928 65.4957 58.3289 65.9451 58.3289C66.4072 58.3289 66.7712 58.1864 67.0371 57.9016C67.303 57.6167 67.4359 57.2021 67.4359 56.6577V53.7995H68.3Z" fill="white"/>
<path d="M59.641 59.0695C59.2042 59.0695 58.8117 58.9935 58.4635 58.8416C58.1217 58.6833 57.8526 58.4681 57.6564 58.1959C57.4602 57.9174 57.3589 57.5977 57.3525 57.2369H58.2736C58.3053 57.5471 58.4319 57.8098 58.6534 58.025C58.8813 58.2339 59.2105 58.3383 59.641 58.3383C60.0524 58.3383 60.3753 58.2371 60.6095 58.0345C60.8501 57.8256 60.9703 57.5597 60.9703 57.2369C60.9703 56.9837 60.9007 56.7779 60.7614 56.6197C60.6222 56.4614 60.4481 56.3411 60.2392 56.2588C60.0303 56.1765 59.7486 56.0879 59.3941 55.993C58.9573 55.879 58.6059 55.7651 58.3401 55.6511C58.0805 55.5372 57.8558 55.3599 57.6659 55.1194C57.4823 54.8725 57.3905 54.5433 57.3905 54.1318C57.3905 53.771 57.4823 53.4513 57.6659 53.1728C57.8495 52.8942 58.1059 52.679 58.435 52.5271C58.7705 52.3752 59.1535 52.2992 59.584 52.2992C60.2044 52.2992 60.7108 52.4543 61.1033 52.7645C61.5021 53.0747 61.7268 53.4861 61.7775 53.9989H60.8279C60.7962 53.7457 60.6633 53.5241 60.4291 53.3342C60.1949 53.138 59.8847 53.0398 59.4985 53.0398C59.1377 53.0398 58.8433 53.1348 58.6154 53.3247C58.3875 53.5083 58.2736 53.7678 58.2736 54.1033C58.2736 54.3439 58.3401 54.5401 58.473 54.6921C58.6123 54.844 58.78 54.9611 58.9763 55.0434C59.1788 55.1194 59.4605 55.208 59.8214 55.3093C60.2582 55.4296 60.6095 55.5498 60.8754 55.6701C61.1413 55.784 61.3691 55.9645 61.5591 56.2113C61.749 56.4519 61.8439 56.7811 61.8439 57.1989C61.8439 57.5217 61.7585 57.8256 61.5875 58.1105C61.4166 58.3953 61.1634 58.6264 60.8279 58.8036C60.4924 58.9809 60.0967 59.0695 59.641 59.0695Z" fill="white"/>
<path d="M50.7525 59.0885C50.3537 59.0885 49.996 59.022 49.6795 58.8891C49.363 58.7498 49.1129 58.5599 48.9293 58.3194C48.7458 58.0725 48.6445 57.7908 48.6255 57.4743H49.5181C49.5434 57.7338 49.6637 57.9459 49.8789 58.1105C50.1005 58.2751 50.3885 58.3574 50.743 58.3574C51.0722 58.3574 51.3317 58.2846 51.5216 58.139C51.7115 57.9934 51.8065 57.8098 51.8065 57.5882C51.8065 57.3603 51.7052 57.1926 51.5026 57.085C51.3001 56.971 50.9867 56.8602 50.5626 56.7526C50.1764 56.6513 49.8599 56.55 49.613 56.4488C49.3725 56.3411 49.1636 56.1861 48.9863 55.9835C48.8154 55.7746 48.7299 55.5024 48.7299 55.1669C48.7299 54.901 48.8091 54.6573 48.9673 54.4357C49.1256 54.2141 49.3503 54.0401 49.6415 53.9135C49.9327 53.7805 50.265 53.7141 50.6385 53.7141C51.2146 53.7141 51.6799 53.8596 52.0344 54.1508C52.3889 54.442 52.5788 54.8409 52.6041 55.3473H51.74C51.721 55.0751 51.6102 54.8567 51.4077 54.6921C51.2114 54.5275 50.9456 54.4452 50.6101 54.4452C50.2999 54.4452 50.053 54.5117 49.8694 54.6446C49.6858 54.7775 49.594 54.9516 49.594 55.1669C49.594 55.3378 49.6478 55.4802 49.7555 55.5942C49.8694 55.7018 50.0087 55.7904 50.1733 55.86C50.3442 55.9233 50.5784 55.9961 50.8759 56.0784C51.2494 56.1797 51.5533 56.281 51.7875 56.3823C52.0217 56.4772 52.2211 56.6228 52.3857 56.8191C52.5566 57.0153 52.6453 57.2717 52.6516 57.5882C52.6516 57.8731 52.5725 58.1295 52.4142 58.3574C52.2559 58.5853 52.0312 58.7657 51.74 58.8986C51.4552 59.0252 51.126 59.0885 50.7525 59.0885Z" fill="white"/>
<path d="M45.9357 54.5117V57.5787C45.9357 57.8319 45.9895 58.0124 46.0972 58.12C46.2048 58.2213 46.3915 58.2719 46.6574 58.2719H47.2936V59.0031H46.515C46.0339 59.0031 45.673 58.8923 45.4325 58.6707C45.1919 58.4492 45.0716 58.0852 45.0716 57.5787V54.5117H44.3975V53.7995H45.0716V52.4891H45.9357V53.7995H47.2936V54.5117H45.9357Z" fill="white"/>
<path d="M38.2212 56.3918C38.2212 55.8537 38.3288 55.3853 38.544 54.9865C38.7593 54.5813 39.0568 54.268 39.4366 54.0464C39.8228 53.8248 40.2627 53.7141 40.7565 53.7141C41.3959 53.7141 41.9213 53.8691 42.3328 54.1793C42.7506 54.4895 43.0259 54.92 43.1589 55.4707H42.2283C42.1397 55.1542 41.9656 54.9042 41.706 54.7206C41.4528 54.537 41.1363 54.4452 40.7565 54.4452C40.2627 54.4452 39.8639 54.6161 39.5601 54.958C39.2562 55.2935 39.1043 55.7714 39.1043 56.3918C39.1043 57.0185 39.2562 57.5028 39.5601 57.8446C39.8639 58.1864 40.2627 58.3574 40.7565 58.3574C41.1363 58.3574 41.4528 58.2687 41.706 58.0915C41.9593 57.9142 42.1333 57.661 42.2283 57.3318H43.1589C43.0196 57.8636 42.7411 58.2909 42.3233 58.6137C41.9055 58.9303 41.3832 59.0885 40.7565 59.0885C40.2627 59.0885 39.8228 58.9777 39.4366 58.7562C39.0568 58.5346 38.7593 58.2213 38.544 57.8161C38.3288 57.411 38.2212 56.9362 38.2212 56.3918Z" fill="white"/>
<path d="M36.8338 56.2019C36.8338 56.3665 36.8243 56.5405 36.8053 56.7241H32.6463C32.6779 57.2369 32.852 57.6389 33.1685 57.9301C33.4914 58.2149 33.8807 58.3574 34.3365 58.3574C34.71 58.3574 35.0201 58.2719 35.267 58.101C35.5202 57.9237 35.6975 57.6895 35.7988 57.3983H36.7293C36.5901 57.8984 36.3115 58.3067 35.8937 58.6232C35.4759 58.9334 34.9568 59.0885 34.3365 59.0885C33.8427 59.0885 33.3996 58.9777 33.0071 58.7562C32.6209 58.5346 32.3171 58.2213 32.0955 57.8161C31.874 57.4046 31.7632 56.9299 31.7632 56.3918C31.7632 55.8537 31.8708 55.3821 32.086 54.977C32.3013 54.5718 32.602 54.2616 32.9881 54.0464C33.3806 53.8248 33.83 53.7141 34.3365 53.7141C34.8302 53.7141 35.267 53.8217 35.6469 54.0369C36.0267 54.2521 36.3179 54.5497 36.5204 54.9295C36.7293 55.303 36.8338 55.7271 36.8338 56.2019ZM35.9412 56.0215C35.9412 55.6923 35.8684 55.4106 35.7228 55.1764C35.5772 54.9358 35.3778 54.7554 35.1246 54.6351C34.8777 54.5085 34.6023 54.4452 34.2985 54.4452C33.8617 54.4452 33.4882 54.5845 33.178 54.863C32.8742 55.1415 32.7001 55.5277 32.6558 56.0215H35.9412Z" fill="white"/>
<path d="M29.6262 52.9544C29.4616 52.9544 29.3223 52.8974 29.2084 52.7835C29.1007 52.6696 29.0469 52.5303 29.0469 52.3657C29.0469 52.2011 29.1007 52.0618 29.2084 51.9479C29.3223 51.834 29.4616 51.777 29.6262 51.777C29.7907 51.777 29.9268 51.834 30.0345 51.9479C30.1484 52.0618 30.2054 52.2011 30.2054 52.3657C30.2054 52.5303 30.1484 52.6696 30.0345 52.7835C29.9268 52.8974 29.7907 52.9544 29.6262 52.9544ZM30.0535 60.133C30.0535 60.5951 29.9363 60.9338 29.7021 61.1491C29.4679 61.3643 29.1261 61.4719 28.6766 61.4719H28.1733V60.7407H28.5342C28.7747 60.7407 28.9425 60.6933 29.0374 60.5983C29.1387 60.5034 29.1894 60.3419 29.1894 60.114V53.7995H30.0535V60.133Z" fill="white"/>
<path d="M24.7871 59.0885C24.2997 59.0885 23.8565 58.9777 23.4577 58.7562C23.0652 58.5346 22.7551 58.2213 22.5272 57.8161C22.3056 57.4046 22.1948 56.9299 22.1948 56.3918C22.1948 55.86 22.3088 55.3916 22.5367 54.9865C22.7709 54.575 23.0874 54.2616 23.4862 54.0464C23.885 53.8248 24.3313 53.7141 24.8251 53.7141C25.3188 53.7141 25.7651 53.8248 26.164 54.0464C26.5628 54.2616 26.8761 54.5718 27.104 54.977C27.3382 55.3821 27.4553 55.8537 27.4553 56.3918C27.4553 56.9299 27.3351 57.4046 27.0945 57.8161C26.8603 58.2213 26.5406 58.5346 26.1355 58.7562C25.7303 58.9777 25.2809 59.0885 24.7871 59.0885ZM24.7871 58.3289C25.0973 58.3289 25.3885 58.2561 25.6607 58.1105C25.9329 57.9649 26.1513 57.7465 26.3159 57.4553C26.4868 57.1641 26.5723 56.8096 26.5723 56.3918C26.5723 55.974 26.49 55.6195 26.3254 55.3283C26.1608 55.0371 25.9456 54.8219 25.6797 54.6826C25.4138 54.537 25.1258 54.4642 24.8156 54.4642C24.4991 54.4642 24.2079 54.537 23.942 54.6826C23.6825 54.8219 23.4736 55.0371 23.3153 55.3283C23.157 55.6195 23.0779 55.974 23.0779 56.3918C23.0779 56.8159 23.1539 57.1736 23.3058 57.4648C23.4641 57.756 23.673 57.9744 23.9325 58.12C24.192 58.2592 24.4769 58.3289 24.7871 58.3289Z" fill="white"/>
<path d="M19.2694 54.6446C19.4213 54.3471 19.6365 54.1161 19.9151 53.9515C20.1999 53.7869 20.5449 53.7046 20.9501 53.7046V54.5972H20.7222C19.7536 54.5972 19.2694 55.1226 19.2694 56.1734V59.0031H18.4053V53.7995H19.2694V54.6446Z" fill="white"/>
<path d="M16.7618 54.3218C16.7618 54.8725 16.5719 55.3315 16.1921 55.6986C15.8186 56.0595 15.2457 56.2399 14.4734 56.2399H13.201V59.0031H12.3369V52.3847H14.4734C15.2204 52.3847 15.787 52.5651 16.1731 52.9259C16.5656 53.2868 16.7618 53.7521 16.7618 54.3218ZM14.4734 55.5277C14.9545 55.5277 15.309 55.4233 15.5369 55.2144C15.7648 55.0055 15.8787 54.7079 15.8787 54.3218C15.8787 53.5052 15.4103 53.0969 14.4734 53.0969H13.201V55.5277H14.4734Z" fill="white"/>
<path d="M0 13.8994C63.831 -22.2363 181.47 19.1747 110.517 57.4205C154.302 28.934 80.7119 -15.6422 0 13.8994Z" fill="#3024AE"/>
<path d="M77.2998 5.8028C78.4992 5.99866 79.7661 6.25935 81.0817 6.58323C139.021 19.2293 126.559 49.4773 111.062 56.7093C130.326 29.7889 100.435 11.3479 81.0817 6.58323C79.8529 6.31504 78.5925 6.05477 77.2998 5.8028Z" fill="#3AB4FF"/>
</svg>
