<svg width="86" height="36" viewBox="0 0 86 36" fill="none" xmlns="http://www.w3.org/2000/svg">
<path d="M10.0292 0V32.9821C7.03192 31.516 4.49635 29.1858 2.71995 26.2649C0.943553 23.3439 0 19.9533 0 16.491C0 13.0286 0.943553 9.6381 2.71995 6.71717C4.49635 3.79622 7.03192 1.46603 10.0292 0ZM20.031 17.8342C19.0296 17.8436 18.0301 17.7406 17.0497 17.5271V4.5792L19.7687 4.52405C24.4483 4.52405 26.7895 6.69121 26.7922 11.0256C26.7938 15.5646 24.5409 17.8342 20.0335 17.8342H20.031Z" fill="white"/>
<path d="M34.4179 16.4906C34.4179 21.2957 32.5946 25.904 29.3489 29.3027C26.1032 32.7014 21.7007 34.6121 17.1092 34.615H17.0098V23.8752C17.8083 23.9492 18.6612 23.9862 19.5683 23.9862C24.1856 23.9862 27.821 22.6743 30.4746 20.0506C32.4362 18.0917 33.6971 15.4885 34.0472 12.6748C34.2984 13.9296 34.4227 15.2085 34.4179 16.4906Z" fill="white"/>
<path d="M40.2549 20.3917V8.09766H44.6753C45.65 8.09766 46.4584 8.2417 47.1005 8.5297C47.7427 8.80567 48.2243 9.25567 48.5453 9.8797C48.8779 10.5036 49.0441 11.3377 49.0441 12.3817C49.0441 13.4257 48.8779 14.2777 48.5453 14.9377C48.2243 15.5857 47.7427 16.0656 47.1005 16.3777C46.4584 16.6776 45.65 16.8277 44.6753 16.8277H42.6285V20.3917H40.2549ZM42.6285 14.7937H44.6065C45.3289 14.7937 45.8449 14.5957 46.1545 14.1997C46.4641 13.7917 46.6189 13.1917 46.6189 12.3997C46.6189 11.5836 46.4641 11.0017 46.1545 10.6537C45.8449 10.3056 45.3289 10.1317 44.6065 10.1317H42.6285V14.7937ZM54.8711 20.5897C53.9079 20.5897 53.088 20.4576 52.4115 20.1937C51.7464 19.9297 51.2419 19.4917 50.8979 18.8797C50.5539 18.2557 50.3819 17.4277 50.3819 16.3957V8.09766H52.7555V16.4857C52.7555 17.1937 52.9332 17.7036 53.2887 18.0157C53.6556 18.3277 54.1831 18.4837 54.8711 18.4837C55.5935 18.4837 56.1381 18.3277 56.5051 18.0157C56.872 17.7036 57.0555 17.1937 57.0555 16.4857V8.09766H59.4291V16.3597C59.4291 17.3917 59.2513 18.2197 58.8958 18.8437C58.5518 19.4676 58.0416 19.9176 57.365 20.1937C56.7 20.4576 55.8687 20.5897 54.8711 20.5897ZM61.503 20.3917V8.09766H63.8766V20.3917H61.503ZM70.4753 20.5897C69.5121 20.5897 68.6923 20.4576 68.0157 20.1937C67.3507 19.9297 66.8461 19.4917 66.5021 18.8797C66.1581 18.2557 65.9861 17.4277 65.9861 16.3957V8.09766H68.3597V16.4857C68.3597 17.1937 68.5375 17.7036 68.8929 18.0157C69.2599 18.3277 69.7873 18.4837 70.4753 18.4837C71.1977 18.4837 71.7424 18.3277 72.1093 18.0157C72.4763 17.7036 72.6597 17.1937 72.6597 16.4857V8.09766H75.0333V16.3597C75.0333 17.3917 74.8556 18.2197 74.5001 18.8437C74.1561 19.4676 73.6459 19.9176 72.9693 20.1937C72.3043 20.4576 71.4729 20.5897 70.4753 20.5897ZM76.1613 20.3917L79.3603 14.4157L76.1613 8.09766H78.6723L80.9083 12.6157L83.2647 8.09766H85.6899L82.4735 14.1817L85.6211 20.3917H83.0927L80.8911 15.9997L78.6207 20.3917H76.1613Z" fill="white"/>
<path d="M41.3411 28.6361L40.6055 24.809H41.0447L41.6587 28.2484H41.8068L42.5477 24.8367H43.0452L43.7861 28.2484H43.9343L44.5483 24.809H44.9875L44.2466 28.6361H43.4845L42.7595 25.1911H42.8335L42.1085 28.6361H41.3411ZM46.3022 28.6915C46.0376 28.6915 45.8277 28.638 45.6724 28.5309C45.5208 28.4238 45.4114 28.265 45.3443 28.0545C45.2773 27.8441 45.2438 27.5819 45.2438 27.2681C45.2438 26.9173 45.2897 26.6367 45.3814 26.4263C45.4731 26.2121 45.6019 26.057 45.7677 25.961C45.9336 25.8613 46.1293 25.8115 46.3551 25.8115C46.708 25.8115 46.9743 25.9149 47.1543 26.1216C47.3342 26.3247 47.4242 26.6533 47.4242 27.1075L47.403 27.4343H45.6619C45.6654 27.7223 45.7165 27.9401 45.8153 28.0877C45.9141 28.2355 46.0923 28.3093 46.3499 28.3093C46.4486 28.3093 46.5563 28.3075 46.6727 28.3037C46.7926 28.2964 46.9108 28.289 47.0272 28.2816C47.1437 28.2742 47.2425 28.2668 47.3236 28.2595L47.3342 28.5973C47.2495 28.6121 47.1455 28.6268 47.022 28.6416C46.902 28.6564 46.7785 28.6675 46.6515 28.6749C46.5245 28.6859 46.408 28.6915 46.3022 28.6915ZM45.6619 27.0853H47.0114C47.0114 26.7456 46.9584 26.5093 46.8526 26.3764C46.7503 26.2398 46.5845 26.1715 46.3551 26.1715C46.207 26.1715 46.0817 26.2029 45.9794 26.2656C45.8771 26.3247 45.7977 26.4207 45.7412 26.5536C45.6883 26.6865 45.6619 26.8637 45.6619 27.0853ZM48.9266 28.6915C48.849 28.6915 48.7555 28.6878 48.6461 28.6804C48.5402 28.6767 48.4326 28.6693 48.3233 28.6583C48.2139 28.6471 48.1169 28.638 48.0322 28.6305V24.665H48.445V25.9997C48.5014 25.9702 48.572 25.9425 48.6567 25.9167C48.7414 25.8872 48.8313 25.8632 48.9266 25.8447C49.0254 25.8225 49.1188 25.8115 49.2071 25.8115C49.447 25.8115 49.6375 25.8595 49.7786 25.9555C49.9233 26.0478 50.0256 26.1973 50.0856 26.4041C50.1491 26.6072 50.1809 26.8749 50.1809 27.2071C50.1809 27.5764 50.1421 27.8699 50.0645 28.0877C49.9903 28.3019 49.8616 28.457 49.6781 28.553C49.4982 28.6453 49.2477 28.6915 48.9266 28.6915ZM48.9213 28.3037C49.1612 28.3037 49.3394 28.2668 49.4558 28.193C49.5758 28.1155 49.6552 27.9954 49.694 27.833C49.7363 27.6705 49.7575 27.4619 49.7575 27.2071C49.7575 26.9708 49.7398 26.7789 49.7046 26.6311C49.6692 26.4834 49.6076 26.3745 49.5193 26.3044C49.4346 26.2342 49.3165 26.1991 49.1647 26.1991C49.0801 26.1991 48.9919 26.2084 48.9001 26.2269C48.8084 26.2416 48.722 26.262 48.6408 26.2877C48.5632 26.3099 48.4979 26.3321 48.445 26.3543V28.2761C48.5191 28.2834 48.6038 28.2909 48.699 28.2983C48.7978 28.3019 48.8719 28.3037 48.9213 28.3037ZM50.9148 28.7191L50.5443 28.5807L52.0367 24.7093L52.4072 24.8533L50.9148 28.7191ZM52.4968 28.6361L53.497 24.809H54.4126L55.4076 28.6361H54.9842L54.7249 27.6669H53.1795L52.9202 28.6361H52.4968ZM53.2694 27.2736H54.6349L54.0898 25.1856H53.8146L53.2694 27.2736ZM55.9088 29.8601V25.8669H56.3163V26.0663C56.3727 26.0293 56.4433 25.9924 56.528 25.9555C56.6162 25.9149 56.7097 25.8816 56.8084 25.8557C56.9072 25.8262 57.0025 25.8115 57.0942 25.8115C57.32 25.8115 57.5035 25.8613 57.6447 25.961C57.7858 26.057 57.8898 26.2084 57.9569 26.4151C58.0274 26.622 58.0627 26.8896 58.0627 27.2183C58.0627 27.5801 58.0222 27.8699 57.941 28.0877C57.8634 28.3019 57.7382 28.457 57.5652 28.553C57.3959 28.6453 57.1754 28.6915 56.9037 28.6915C56.7943 28.6915 56.6832 28.6841 56.5703 28.6693C56.4609 28.6546 56.3762 28.6416 56.3163 28.6305V29.8601H55.9088ZM56.8825 28.3149C57.0731 28.3149 57.223 28.278 57.3324 28.2041C57.4453 28.1302 57.5246 28.0139 57.5705 27.8551C57.6164 27.6927 57.6393 27.4804 57.6393 27.2183C57.6393 26.8453 57.5864 26.5832 57.4805 26.4317C57.3747 26.2767 57.2265 26.1991 57.036 26.1991C56.9513 26.1991 56.8631 26.2103 56.7714 26.2324C56.6832 26.2545 56.5985 26.2823 56.5173 26.3155C56.4362 26.345 56.3692 26.3764 56.3163 26.4096V28.2595C56.3727 28.2668 56.4557 28.278 56.565 28.2927C56.6744 28.3075 56.7802 28.3149 56.8825 28.3149ZM58.7048 29.8601V25.8669H59.1123V26.0663C59.1687 26.0293 59.2393 25.9924 59.324 25.9555C59.4122 25.9149 59.5057 25.8816 59.6045 25.8557C59.7033 25.8262 59.7986 25.8115 59.8903 25.8115C60.1161 25.8115 60.2995 25.8613 60.4407 25.961C60.5818 26.057 60.6858 26.2084 60.7529 26.4151C60.8234 26.622 60.8588 26.8896 60.8588 27.2183C60.8588 27.5801 60.8182 27.8699 60.7371 28.0877C60.6594 28.3019 60.5342 28.457 60.3613 28.553C60.1919 28.6453 59.9714 28.6915 59.6997 28.6915C59.5904 28.6915 59.4793 28.6841 59.3663 28.6693C59.257 28.6546 59.1722 28.6416 59.1123 28.6305V29.8601H58.7048ZM59.6785 28.3149C59.8691 28.3149 60.019 28.278 60.1284 28.2041C60.2413 28.1302 60.3207 28.0139 60.3666 27.8551C60.4124 27.6927 60.4354 27.4804 60.4354 27.2183C60.4354 26.8453 60.3824 26.5832 60.2766 26.4317C60.1708 26.2767 60.0226 26.1991 59.832 26.1991C59.7474 26.1991 59.6592 26.2103 59.5675 26.2324C59.4793 26.2545 59.3946 26.2823 59.3134 26.3155C59.2323 26.345 59.1652 26.3764 59.1123 26.4096V28.2595C59.1687 28.2668 59.2517 28.278 59.3611 28.2927C59.4704 28.3075 59.5763 28.3149 59.6785 28.3149ZM62.3264 28.6915C62.2453 28.6915 62.1465 28.6859 62.03 28.6749C61.9171 28.6637 61.8042 28.6509 61.6913 28.6361C61.5784 28.6176 61.4779 28.601 61.3897 28.5863L61.4108 28.2151C61.4991 28.2263 61.5978 28.2392 61.7072 28.2539C61.8201 28.2687 61.9295 28.2816 62.0353 28.2927C62.1412 28.3001 62.2259 28.3037 62.2894 28.3037C62.4341 28.3037 62.554 28.2909 62.6492 28.265C62.7445 28.2355 62.8168 28.1875 62.8663 28.121C62.9157 28.0545 62.9403 27.9604 62.9403 27.8385C62.9403 27.7462 62.9209 27.6742 62.8821 27.6225C62.8469 27.5709 62.7781 27.5284 62.6757 27.4951C62.5769 27.4619 62.4323 27.4306 62.2417 27.401C62.0442 27.3677 61.8784 27.3272 61.7443 27.2791C61.6137 27.2275 61.5167 27.1517 61.4532 27.0521C61.3897 26.9524 61.3579 26.8102 61.3579 26.6256C61.3579 26.4189 61.4038 26.2564 61.4955 26.1383C61.5873 26.0201 61.7055 25.937 61.8501 25.889C61.9983 25.8373 62.1518 25.8115 62.3105 25.8115C62.4094 25.8115 62.5169 25.817 62.6334 25.8281C62.7534 25.8391 62.8698 25.8539 62.9827 25.8724C63.0956 25.8872 63.1926 25.902 63.2737 25.9167L63.2632 26.2877C63.1785 26.273 63.0797 26.2601 62.9668 26.249C62.8539 26.2342 62.741 26.2232 62.6281 26.2157C62.5152 26.2047 62.4164 26.1991 62.3317 26.1991C62.2259 26.1991 62.1306 26.2121 62.0459 26.2379C61.9612 26.2601 61.8942 26.3007 61.8448 26.3597C61.7954 26.4189 61.7707 26.5019 61.7707 26.609C61.7707 26.6902 61.7884 26.7567 61.8236 26.8084C61.859 26.8564 61.926 26.897 62.0248 26.9303C62.1235 26.9635 62.2664 26.9967 62.4535 27.0299C62.6722 27.0669 62.8469 27.113 62.9774 27.1684C63.1114 27.2237 63.2085 27.3013 63.2684 27.401C63.3285 27.5007 63.3584 27.641 63.3584 27.8219C63.3584 28.0361 63.3161 28.2078 63.2314 28.337C63.1503 28.4625 63.0321 28.553 62.8768 28.6084C62.7251 28.6637 62.5416 28.6915 62.3264 28.6915ZM66.1927 28.6859C66.0869 28.6859 65.9634 28.6785 65.8222 28.6637C65.6811 28.6527 65.54 28.638 65.3989 28.6195C65.2613 28.5973 65.1395 28.5789 65.0337 28.5641L65.076 28.1985C65.1783 28.2096 65.2965 28.2226 65.4306 28.2373C65.5682 28.2521 65.7023 28.265 65.8328 28.2761C65.9669 28.2871 66.0798 28.2927 66.1715 28.2927C66.3444 28.2927 66.4873 28.2668 66.6002 28.2151C66.7131 28.1597 66.7978 28.0767 66.8542 27.9659C66.9107 27.8551 66.9389 27.713 66.9389 27.5395C66.9389 27.3992 66.9125 27.2884 66.8596 27.2071C66.8101 27.1222 66.7255 27.0558 66.6055 27.0077C66.489 26.9561 66.3321 26.91 66.1345 26.8693C65.944 26.8287 65.7781 26.7826 65.637 26.7309C65.4959 26.6792 65.3777 26.6145 65.2824 26.537C65.1872 26.4558 65.1166 26.3543 65.0708 26.2324C65.0249 26.1105 65.002 25.9592 65.002 25.7783C65.002 25.5308 65.0496 25.3314 65.1448 25.1801C65.2436 25.0287 65.3812 24.9179 65.5576 24.8477C65.7376 24.7776 65.9458 24.7425 66.1821 24.7425C66.288 24.7425 66.4079 24.75 66.542 24.7647C66.6796 24.7757 66.8137 24.7905 66.9442 24.809C67.0783 24.8238 67.1929 24.8404 67.2882 24.8589L67.2512 25.2299C67.1488 25.2152 67.0307 25.2023 66.8966 25.1911C66.7625 25.1764 66.6338 25.1635 66.5102 25.1524C66.3868 25.1413 66.288 25.1357 66.2138 25.1357C66.0445 25.1357 65.9016 25.1579 65.7852 25.2023C65.6688 25.2465 65.5806 25.3148 65.5206 25.4071C65.4606 25.4957 65.4306 25.6102 65.4306 25.7505C65.4306 25.913 65.4588 26.0367 65.5153 26.1216C65.5753 26.2066 65.6706 26.273 65.801 26.321C65.9316 26.369 66.1027 26.4189 66.3144 26.4705C66.4979 26.5149 66.6549 26.5629 66.7854 26.6145C66.9195 26.6662 67.0289 26.7309 67.1136 26.8084C67.2018 26.8822 67.2653 26.9764 67.3041 27.0909C67.3464 27.2016 67.3676 27.3401 67.3676 27.5063C67.3676 27.7869 67.32 28.0139 67.2247 28.1875C67.1294 28.361 66.9936 28.4884 66.8172 28.5696C66.6408 28.6471 66.4326 28.6859 66.1927 28.6859ZM69.0135 28.6915C68.7171 28.6915 68.486 28.638 68.3201 28.5309C68.1578 28.4238 68.0432 28.2613 67.9761 28.0435C67.9127 27.8256 67.8809 27.5505 67.8809 27.2183C67.8809 26.9007 67.9162 26.6386 67.9868 26.4317C68.0608 26.225 68.1808 26.0699 68.3466 25.9665C68.5125 25.8632 68.7347 25.8115 69.0135 25.8115C69.2957 25.8115 69.5198 25.8632 69.6856 25.9665C69.8514 26.0699 69.9696 26.225 70.0401 26.4317C70.1143 26.6386 70.1513 26.9007 70.1513 27.2183C70.1513 27.5505 70.1178 27.8256 70.0508 28.0435C69.9872 28.2613 69.8726 28.4238 69.7068 28.5309C69.5445 28.638 69.3134 28.6915 69.0135 28.6915ZM69.0135 28.3204C69.2181 28.3204 69.3716 28.2834 69.4739 28.2096C69.5762 28.1321 69.6432 28.0121 69.675 27.8496C69.7103 27.6872 69.728 27.4767 69.728 27.2183C69.728 26.9635 69.7068 26.7604 69.6644 26.609C69.6221 26.4576 69.5498 26.3487 69.4474 26.2823C69.3451 26.2157 69.2005 26.1825 69.0135 26.1825C68.83 26.1825 68.6853 26.2157 68.5795 26.2823C68.4772 26.3487 68.4048 26.4576 68.3625 26.609C68.3201 26.7604 68.299 26.9635 68.299 27.2183C68.299 27.4767 68.3149 27.6872 68.3466 27.8496C68.3819 28.0121 68.4507 28.1321 68.553 28.2096C68.6554 28.2834 68.8089 28.3204 69.0135 28.3204ZM70.8303 28.6361V24.665H71.2378V28.6361H70.8303ZM72.8382 28.6915C72.6124 28.6915 72.4395 28.6434 72.3195 28.5475C72.1996 28.4515 72.1167 28.3019 72.0708 28.0989C72.0285 27.8958 72.0073 27.6336 72.0073 27.3124V25.8669H72.4148V27.3124C72.4148 27.5561 72.4254 27.7499 72.4466 27.8939C72.4713 28.0379 72.5224 28.1431 72.6001 28.2096C72.6777 28.2724 72.7941 28.3037 72.9494 28.3037C73.1046 28.3037 73.2457 28.2816 73.3727 28.2373C73.4998 28.193 73.602 28.1487 73.6797 28.1044V25.8669H74.0871V28.6361H73.6797V28.4423C73.5668 28.5087 73.4432 28.5678 73.3092 28.6195C73.1787 28.6675 73.0217 28.6915 72.8382 28.6915ZM75.7184 28.697C75.5349 28.697 75.3885 28.6675 75.2791 28.6084C75.1733 28.5493 75.0974 28.4477 75.0516 28.3037C75.0057 28.1561 74.9828 27.9493 74.9828 27.6835V26.2379H74.6071V25.8669H74.9828V25.0195H75.3903V25.8669H76.2212V26.2379H75.3903V27.5561C75.3903 27.7518 75.3973 27.905 75.4115 28.0157C75.4291 28.1228 75.4644 28.1985 75.5173 28.2429C75.5703 28.2871 75.6531 28.3093 75.766 28.3093C75.8013 28.3093 75.8472 28.3075 75.9036 28.3037C75.9601 28.3001 76.0165 28.2964 76.073 28.2927C76.1329 28.2853 76.1859 28.2798 76.2318 28.2761L76.2583 28.6361C76.2088 28.6434 76.1506 28.6509 76.0836 28.6583C76.0165 28.6693 75.9495 28.6785 75.8824 28.6859C75.819 28.6933 75.7643 28.697 75.7184 28.697ZM76.7058 28.6361V25.8669H77.1134V28.6361H76.7058ZM76.7058 25.2576V24.7591H77.1134V25.2576H76.7058ZM78.8898 28.6915C78.5935 28.6915 78.3628 28.638 78.1971 28.5309C78.0345 28.4238 77.9198 28.2613 77.8527 28.0435C77.7892 27.8256 77.7575 27.5505 77.7575 27.2183C77.7575 26.9007 77.7927 26.6386 77.8633 26.4317C77.9374 26.225 78.0574 26.0699 78.2229 25.9665C78.3886 25.8632 78.6115 25.8115 78.8898 25.8115C79.172 25.8115 79.3964 25.8632 79.5621 25.9665C79.7279 26.0699 79.8459 26.225 79.9171 26.4317C79.9906 26.6386 80.0281 26.9007 80.0281 27.2183C80.0281 27.5505 79.9945 27.8256 79.9273 28.0435C79.8639 28.2613 79.749 28.4238 79.5833 28.5309C79.4206 28.638 79.19 28.6915 78.8898 28.6915ZM78.8898 28.3204C79.0946 28.3204 79.2479 28.2834 79.3503 28.2096C79.4527 28.1321 79.5199 28.0121 79.5512 27.8496C79.5872 27.6872 79.6044 27.4767 79.6044 27.2183C79.6044 26.9635 79.5833 26.7604 79.541 26.609C79.4988 26.4576 79.4261 26.3487 79.3237 26.2823C79.222 26.2157 79.0766 26.1825 78.8898 26.1825C78.7068 26.1825 78.5622 26.2157 78.4559 26.2823C78.3535 26.3487 78.2815 26.4576 78.2393 26.609C78.1971 26.7604 78.1756 26.9635 78.1756 27.2183C78.1756 27.4767 78.1916 27.6872 78.2229 27.8496C78.2589 28.0121 78.3277 28.1321 78.4293 28.2096C78.5317 28.2834 78.6857 28.3204 78.8898 28.3204ZM80.6755 28.6361V25.8669H81.0828V26.0607C81.143 26.0238 81.2165 25.9869 81.3048 25.9499C81.3963 25.913 81.494 25.8816 81.5956 25.8557C81.6981 25.8262 81.7974 25.8115 81.892 25.8115C82.0757 25.8115 82.2258 25.8373 82.3423 25.889C82.4588 25.937 82.5487 26.0164 82.612 26.1271C82.6793 26.2342 82.7254 26.3745 82.7496 26.5481C82.7778 26.7179 82.7918 26.9247 82.7918 27.1684V28.6361H82.379V27.185C82.379 26.945 82.365 26.753 82.3368 26.609C82.3126 26.465 82.2594 26.3616 82.1781 26.2989C82.1007 26.2324 81.9803 26.1991 81.8185 26.1991C81.7301 26.1991 81.6387 26.2103 81.5433 26.2324C81.451 26.2508 81.365 26.2767 81.2837 26.3099C81.2024 26.3394 81.1352 26.369 81.0828 26.3985V28.6361H80.6755ZM84.3484 28.6915C84.2671 28.6915 84.1686 28.6859 84.0521 28.6749C83.9388 28.6637 83.8262 28.6509 83.7136 28.6361C83.6002 28.6176 83.5002 28.601 83.4118 28.5863L83.4329 28.2151C83.5213 28.2263 83.6198 28.2392 83.7292 28.2539C83.8418 28.2687 83.9513 28.2816 84.0576 28.2927C84.1631 28.3001 84.2476 28.3037 84.3117 28.3037C84.4563 28.3037 84.5759 28.2909 84.6713 28.265C84.7667 28.2355 84.8386 28.1875 84.8879 28.121C84.9379 28.0545 84.9622 27.9604 84.9622 27.8385C84.9622 27.7462 84.9426 27.6742 84.9043 27.6225C84.8691 27.5709 84.8003 27.5284 84.6979 27.4951C84.5986 27.4619 84.454 27.4306 84.264 27.401C84.0662 27.3677 83.9005 27.3272 83.766 27.2791C83.6354 27.2275 83.5385 27.1517 83.4751 27.0521C83.4118 26.9524 83.3798 26.8102 83.3798 26.6256C83.3798 26.4189 83.4259 26.2564 83.5174 26.1383C83.6096 26.0201 83.7277 25.937 83.8723 25.889C84.0201 25.8373 84.1741 25.8115 84.3328 25.8115C84.4313 25.8115 84.5392 25.817 84.6557 25.8281C84.7753 25.8391 84.8918 25.8539 85.0044 25.8724C85.1177 25.8872 85.2147 25.902 85.296 25.9167L85.285 26.2877C85.2006 26.273 85.1013 26.2601 84.9887 26.249C84.8762 26.2342 84.7628 26.2232 84.6502 26.2157C84.5369 26.2047 84.4383 26.1991 84.3539 26.1991C84.2476 26.1991 84.153 26.2121 84.0678 26.2379C83.9833 26.2601 83.9161 26.3007 83.8668 26.3597C83.8176 26.4189 83.7926 26.5019 83.7926 26.609C83.7926 26.6902 83.8105 26.7567 83.8457 26.8084C83.8809 26.8564 83.9481 26.897 84.0466 26.9303C84.1452 26.9635 84.2882 26.9967 84.4751 27.0299C84.694 27.0669 84.8691 27.113 84.9997 27.1684C85.1334 27.2237 85.2303 27.3013 85.2905 27.401C85.3507 27.5007 85.3804 27.641 85.3804 27.8219C85.3804 28.0361 85.3382 28.2078 85.2538 28.337C85.1725 28.4625 85.0544 28.553 84.8988 28.6084C84.7472 28.6637 84.5634 28.6915 84.3484 28.6915Z" fill="white"/>
</svg>
